# xmcd CD database file
#
# Track frame offsets:
#	150
#	7054
#	10089
#	12605
#	25455
#	29009
#	33204
#	35651
#	44951
#	55178
#	56826
#	59463
#	67987
#	75987
#	78448
#	79679
#	96426
#	100312
#	107907
#	117170
#	118435
#	135122
#
# Disc length: 1899 seconds
#
# Revision: 0
# Processed by: cddbd v1.5.1PL0 Copyright (c) Steve Scherf et al.
# Submitted via: CDex 1.50beta9
#
DISCID=2f076916
DTITLE=Rydin' High - Meets Ed Brown
DYEAR=2003
DGENRE=Country
TTITLE0=Introduction
TTITLE1=Get Rich Quick
TTITLE2=Me n' Jess
TTITLE3=Cowdogs
TTITLE4=Red Meat
TTITLE5=Nicotine Patch
TTITLE6=Pat Richardson
TTITLE7=Ed's Funeral
TTITLE8=Fog Along The San Juaquin
TTITLE9=Levis
TTITLE10=Small Town
TTITLE11=Cuyama
TTITLE12=Men's Lib
TTITLE13=Cow's Head
TTITLE14=A Bear's Tale
TTITLE15=The Yosemite Bear Or The Aerobic Cowboy
TTITLE16=Good Fences
TTITLE17=Ed's Glasses
TTITLE18=Eye Of The Beholder
TTITLE19=Just As True
TTITLE20=A Grizzly Tale Or The Below Zero Hero
TTITLE21=I'm Teaching School
EXTD=YEAR: 2003
EXTT0=
EXTT1=
EXTT2=
EXTT3=
EXTT4=
EXTT5=
EXTT6=
EXTT7=
EXTT8=
EXTT9=
EXTT10=
EXTT11=
EXTT12=
EXTT13=
EXTT14=
EXTT15=
EXTT16=
EXTT17=
EXTT18=
EXTT19=
EXTT20=
EXTT21=
PLAYORDER=
